<mxfile host="65bd71144e">
    <diagram id="tBaudEdlzc8Ip72TyKn3" name="Page-1">
        <mxGraphModel dx="950" dy="402" grid="1" gridSize="10" guides="1" tooltips="1" connect="1" arrows="1" fold="1" page="1" pageScale="1" pageWidth="827" pageHeight="1169" math="0" shadow="0">
            <root>
                <mxCell id="0"/>
                <mxCell id="1" parent="0"/>
                <mxCell id="2" value="Identification" style="rounded=0;whiteSpace=wrap;html=1;" parent="1" vertex="1">
                    <mxGeometry x="80" y="45" width="190" height="270" as="geometry"/>
                </mxCell>
                <mxCell id="3" value="&lt;h1&gt;Vérifier que le code formulaire est correct&lt;/h1&gt;&lt;div&gt;- créer l'élève&lt;/div&gt;&lt;div&gt;- récupérer le questionnaire&lt;/div&gt;" style="text;html=1;strokeColor=none;fillColor=none;spacing=5;spacingTop=-20;whiteSpace=wrap;overflow=hidden;rounded=0;" parent="1" vertex="1">
                    <mxGeometry x="80" y="330" width="190" height="170" as="geometry"/>
                </mxCell>
                <mxCell id="4" value="Consignes" style="rounded=0;whiteSpace=wrap;html=1;" parent="1" vertex="1">
                    <mxGeometry x="310" y="45" width="260" height="270" as="geometry"/>
                </mxCell>
                <mxCell id="5" value="Commencer" style="rounded=1;whiteSpace=wrap;html=1;" parent="1" vertex="1">
                    <mxGeometry x="390" y="225" width="100" height="30" as="geometry"/>
                </mxCell>
                <mxCell id="6" value="1 question+réponses" style="rounded=0;whiteSpace=wrap;html=1;" parent="1" vertex="1">
                    <mxGeometry x="590" y="40" width="320" height="280" as="geometry"/>
                </mxCell>
                <mxCell id="7" value="Valider ma réponse" style="rounded=1;whiteSpace=wrap;html=1;" parent="1" vertex="1">
                    <mxGeometry x="740" y="230" width="150" height="20" as="geometry"/>
                </mxCell>
                <mxCell id="8" value="&lt;h1&gt;Ecrire dans reponse éléve&lt;/h1&gt;" style="text;html=1;strokeColor=none;fillColor=none;spacing=5;spacingTop=-20;whiteSpace=wrap;overflow=hidden;rounded=0;" parent="1" vertex="1">
                    <mxGeometry x="590" y="330" width="190" height="120" as="geometry"/>
                </mxCell>
                <mxCell id="9" value="" style="shape=flexArrow;endArrow=classic;html=1;exitX=0.997;exitY=0.69;exitDx=0;exitDy=0;exitPerimeter=0;entryX=1.002;entryY=0.383;entryDx=0;entryDy=0;entryPerimeter=0;" parent="1" source="6" target="6" edge="1">
                    <mxGeometry width="50" height="50" relative="1" as="geometry">
                        <mxPoint x="440" y="350" as="sourcePoint"/>
                        <mxPoint x="1050" y="230" as="targetPoint"/>
                        <Array as="points">
                            <mxPoint x="970" y="230"/>
                            <mxPoint x="970" y="160"/>
                        </Array>
                    </mxGeometry>
                </mxCell>
                <mxCell id="10" value="Précédente" style="rounded=1;whiteSpace=wrap;html=1;" parent="1" vertex="1">
                    <mxGeometry x="610" y="230" width="100" height="20" as="geometry"/>
                </mxCell>
                <mxCell id="13" value="Résultats" style="rounded=0;whiteSpace=wrap;html=1;" parent="1" vertex="1">
                    <mxGeometry x="1000" y="40" width="290" height="280" as="geometry"/>
                </mxCell>
                <mxCell id="14" value="&lt;h1&gt;Toutes les questions + réponses + &quot;code couleur&quot;&lt;/h1&gt;&lt;div&gt;Note, ...&lt;/div&gt;" style="text;html=1;strokeColor=none;fillColor=none;spacing=5;spacingTop=-20;whiteSpace=wrap;overflow=hidden;rounded=0;" parent="1" vertex="1">
                    <mxGeometry x="1000" y="330" width="190" height="240" as="geometry"/>
                </mxCell>
                <mxCell id="15" value="Quitter" style="rounded=1;whiteSpace=wrap;html=1;" parent="1" vertex="1">
                    <mxGeometry x="1160" y="280" width="110" height="30" as="geometry"/>
                </mxCell>
                <mxCell id="19" value="WP" style="shape=cylinder3;whiteSpace=wrap;html=1;boundedLbl=1;backgroundOutline=1;size=15;" vertex="1" parent="1">
                    <mxGeometry x="440" y="840" width="60" height="80" as="geometry"/>
                </mxCell>
                <mxCell id="20" value="Front eleve" style="rounded=0;whiteSpace=wrap;html=1;" vertex="1" parent="1">
                    <mxGeometry x="100" y="830" width="120" height="60" as="geometry"/>
                </mxCell>
            </root>
        </mxGraphModel>
    </diagram>
</mxfile>